<svg width="108" height="109" viewBox="0 0 108 109" fill="none" xmlns="http://www.w3.org/2000/svg">
<g filter="url(#filter0_d_1_1216)">
<g clip-path="url(#clip0_1_1216)">
<path d="M47.9765 95.4955C73.3145 95.4955 93.8549 74.9551 93.8549 49.6172C93.8549 24.2792 73.3145 3.73877 47.9765 3.73877C22.6386 3.73877 2.09814 24.2792 2.09814 49.6172C2.09814 74.9551 22.6386 95.4955 47.9765 95.4955Z" fill="#070707" stroke="url(#paint0_linear_1_1216)" stroke-width="2.13388"/>
<path d="M22.8994 47.6611V45.3608C22.8994 44.028 23.1185 42.9236 23.5566 42.0472C23.9948 41.1526 24.6247 40.4224 25.4462 39.8565C26.286 39.2723 27.3084 38.7976 28.5133 38.4325L30.3481 37.8574C31.0236 37.6383 31.5895 37.3735 32.0459 37.0632C32.5024 36.7346 32.8492 36.3421 33.0865 35.8857C33.3421 35.4292 33.4699 34.9089 33.4699 34.3247V34.2152C33.4699 33.3024 33.1596 32.5812 32.5389 32.0518C31.9181 31.5041 31.0692 31.2303 29.9921 31.2303C28.9332 31.2303 28.0751 31.5224 27.4179 32.1066C26.779 32.6726 26.4594 33.4941 26.4594 34.5712V35.0641H22.9542V34.626C22.9542 33.2384 23.2645 32.0609 23.8853 31.0933C24.506 30.1258 25.3458 29.3864 26.4047 28.8752C27.4818 28.364 28.6776 28.1084 29.9921 28.1084C31.3065 28.1084 32.4932 28.364 33.5521 28.8752C34.611 29.3681 35.4416 30.071 36.0441 30.9838C36.6649 31.8784 36.9752 32.9372 36.9752 34.1604V34.4343C36.9752 35.6575 36.7196 36.6981 36.2084 37.5561C35.7155 38.396 35.04 39.0897 34.1819 39.6374C33.3239 40.1668 32.3472 40.6049 31.2518 40.9519L29.4991 41.4995C28.7141 41.7369 28.1025 42.0016 27.6644 42.2937C27.2262 42.5676 26.9159 42.8779 26.7333 43.2248C26.569 43.5534 26.4868 43.9551 26.4868 44.4297V44.5393H36.8109V47.6611H22.8994ZM46.3065 48.0445C44.8095 48.0445 43.5133 47.7798 42.4179 47.2504C41.3408 46.7209 40.5101 45.9724 39.9259 45.0048C39.3417 44.0372 39.0496 42.9145 39.0496 41.6365V41.3626H42.6096V41.6091C42.6096 42.5219 42.9108 43.3069 43.5133 43.9642C44.1341 44.6031 45.0468 44.9226 46.2518 44.9226C47.4567 44.9226 48.3787 44.6031 49.0176 43.9642C49.6749 43.3069 50.0035 42.458 50.0035 41.4174V41.1435C50.0035 40.1212 49.6749 39.3088 49.0176 38.7063C48.3787 38.1038 47.5753 37.8026 46.6078 37.8026C46.0784 37.8026 45.6402 37.8757 45.2933 38.0217C44.9464 38.1677 44.6635 38.3503 44.4444 38.5694C44.2253 38.7885 44.0427 39.0075 43.8967 39.2266H39.652V28.4918H52.742V31.6684H43.1573V36.3512H43.6502C43.8328 36.1138 44.0793 35.8857 44.3896 35.6666C44.6999 35.4475 45.1016 35.2649 45.5945 35.1189C46.0875 34.9729 46.6716 34.8998 47.3472 34.8998C48.479 34.8998 49.5106 35.1372 50.4416 35.6118C51.3727 36.0865 52.1121 36.7894 52.6598 37.7205C53.2258 38.6332 53.5087 39.7652 53.5087 41.1162V41.4448C53.5087 42.7957 53.2166 43.9642 52.6324 44.95C52.0664 45.9359 51.2449 46.7027 50.1678 47.2504C49.0907 47.7798 47.8036 48.0445 46.3065 48.0445ZM58.4821 48.0171L56.4009 46.3467L71.1339 28.1358L73.2151 29.8063L58.4821 48.0171ZM70.0385 47.935C68.6509 47.935 67.5647 47.5699 66.7797 46.8396C65.9946 46.0911 65.6021 45.0779 65.6021 43.7999V43.6082C65.6021 42.312 65.9946 41.2988 66.7797 40.5685C67.5647 39.82 68.6509 39.4457 70.0385 39.4457C71.3894 39.4457 72.4665 39.82 73.2699 40.5685C74.0731 41.2988 74.4748 42.312 74.4748 43.6082V43.7999C74.4748 45.0779 74.0822 46.0911 73.2973 46.8396C72.5122 47.5699 71.4259 47.935 70.0385 47.935ZM70.0385 45.6894C70.5679 45.6894 70.9787 45.5251 71.2708 45.1965C71.5811 44.8679 71.7363 44.4388 71.7363 43.9094V43.4713C71.7363 42.9418 71.5811 42.5128 71.2708 42.1842C70.9787 41.8556 70.5679 41.6912 70.0385 41.6912C69.509 41.6912 69.0891 41.8556 68.7788 42.1842C68.4866 42.5128 68.3406 42.9418 68.3406 43.4713V43.9094C68.3406 44.4388 68.4866 44.8679 68.7788 45.1965C69.0891 45.5251 69.509 45.6894 70.0385 45.6894ZM59.5775 36.7072C58.19 36.7072 57.1037 36.3421 56.3187 35.6118C55.5336 34.8633 55.1412 33.8501 55.1412 32.5721V32.3804C55.1412 31.0842 55.5336 30.071 56.3187 29.3407C57.1037 28.5922 58.19 28.2179 59.5775 28.2179C60.9284 28.2179 62.0055 28.5922 62.8089 29.3407C63.6121 30.071 64.0138 31.0842 64.0138 32.3804V32.5721C64.0138 33.8501 63.6212 34.8633 62.8363 35.6118C62.0512 36.3421 60.9649 36.7072 59.5775 36.7072ZM59.5775 34.4617C60.1069 34.4617 60.5177 34.2974 60.8098 33.9687C61.1201 33.6401 61.2753 33.2111 61.2753 32.6817V32.2435C61.2753 31.7141 61.1201 31.285 60.8098 30.9564C60.5177 30.6278 60.1069 30.4635 59.5775 30.4635C59.048 30.4635 58.6281 30.6278 58.3178 30.9564C58.0257 31.285 57.8796 31.7141 57.8796 32.2435V32.6817C57.8796 33.2111 58.0257 33.6401 58.3178 33.9687C58.6281 34.2974 59.048 34.4617 59.5775 34.4617ZM33.84 74.4512C31.4302 74.4512 29.5132 73.794 28.0892 72.4795C26.6652 71.1468 25.9532 69.2481 25.9532 66.7835V62.1829C25.9532 59.7182 26.6652 57.8287 28.0892 56.5142C29.5132 55.1815 31.4302 54.5151 33.84 54.5151C36.2499 54.5151 38.1668 55.1815 39.5908 56.5142C41.0148 57.8287 41.7268 59.7182 41.7268 62.1829V66.7835C41.7268 69.2481 41.0148 71.1468 39.5908 72.4795C38.1668 73.794 36.2499 74.4512 33.84 74.4512ZM33.84 71.2198C35.1911 71.2198 36.2408 70.8274 36.9893 70.0423C37.7378 69.2572 38.112 68.2075 38.112 66.8931V62.0733C38.112 60.7589 37.7378 59.7091 36.9893 58.9241C36.2408 58.139 35.1911 57.7465 33.84 57.7465C32.5074 57.7465 31.4575 58.139 30.6908 58.9241C29.9423 59.7091 29.568 60.7589 29.568 62.0733V66.8931C29.568 68.2075 29.9423 69.2572 30.6908 70.0423C31.4575 70.8274 32.5074 71.2198 33.84 71.2198ZM44.8975 74.0679V54.8985H56.9468V58.1847H48.5123V62.8127H56.2896V66.0989H48.5123V74.0679H44.8975ZM59.5259 74.0679V54.8985H71.5751V58.1847H63.1406V62.8127H70.9179V66.0989H63.1406V74.0679H59.5259Z" fill="url(#paint1_linear_1_1216)"/>
</g>
</g>
<defs>
<filter id="filter0_d_1_1216" x="0.03125" y="0.671875" width="107.891" height="107.891" filterUnits="userSpaceOnUse" color-interpolation-filters="sRGB">
<feFlood flood-opacity="0" result="BackgroundImageFix"/>
<feColorMatrix in="SourceAlpha" type="matrix" values="0 0 0 0 0 0 0 0 0 0 0 0 0 0 0 0 0 0 127 0" result="hardAlpha"/>
<feOffset dx="6" dy="5"/>
<feGaussianBlur stdDeviation="3.5"/>
<feComposite in2="hardAlpha" operator="out"/>
<feColorMatrix type="matrix" values="0 0 0 0 0 0 0 0 0 0 0 0 0 0 0 0 0 0 0.16 0"/>
<feBlend mode="normal" in2="BackgroundImageFix" result="effect1_dropShadow_1_1216"/>
<feBlend mode="normal" in="SourceGraphic" in2="effect1_dropShadow_1_1216" result="shape"/>
</filter>
<linearGradient id="paint0_linear_1_1216" x1="8.20757" y1="2.67184" x2="113.871" y2="79.7437" gradientUnits="userSpaceOnUse">
<stop stop-color="#EB48F7"/>
<stop offset="0.583333" stop-color="#F8D481"/>
<stop offset="0.942708" stop-color="#CCFF02"/>
</linearGradient>
<linearGradient id="paint1_linear_1_1216" x1="25.6811" y1="25.1665" x2="85.4417" y2="69.5636" gradientUnits="userSpaceOnUse">
<stop stop-color="#EB48F7"/>
<stop offset="0.583333" stop-color="#F8D481"/>
<stop offset="0.942708" stop-color="#CCFF02"/>
</linearGradient>
<clipPath id="clip0_1_1216">
<rect width="93.8906" height="93.8906" fill="white" transform="translate(1.03125 2.67188)"/>
</clipPath>
</defs>
</svg>
